#N canvas 15 22 1235 752 10;
#X declare -lib mrpeach;
#X obj 113 593 adc~ 1;
#X obj 113 617 hip~ 5;
#X msg 130 654 bang;
#X obj 112 682 tabwrite~ table19;
#N canvas 0 22 450 300 (subpatch) 0;
#X array table19 63289 float 0;
#X coords 0 1.02 63288 -1.02 200 130 1;
#X restore 111 427 graph;
#X msg 130 654 bang;
#N canvas 0 22 450 300 (subpatch) 0;
#X array graph19 88206 float 0;
#X coords 0 44100 88205 0 200 130 1;
#X restore 111 277 graph;
#X obj 112 682 tabwrite~ table19;
#X text 118 561 ====== 44103 samples ========;
#N canvas 0 22 450 300 (subpatch) 0;
#X array table20 11529 float 0;
#X coords 0 1.02 11528 -1.02 200 130 1;
#X restore 330 427 graph;
#X obj 333 594 adc~ 1;
#X obj 333 618 hip~ 5;
#X msg 351 651 bang;
#N canvas 0 22 450 300 (subpatch) 0;
#X array graph20 44100 float 2;
#X coords 0 44100 44100 0 200 130 1;
#X restore 330 277 graph;
#X text 330 563 ====== 44103 samples ========;
#X obj 333 679 tabwrite~ table20;
#N canvas 0 22 450 300 (subpatch) 0;
#X array table21 26532 float 0;
#X coords 0 1.02 26531 -1.02 200 130 1;
#X restore 546 427 graph;
#X obj 549 595 adc~ 1;
#X obj 549 619 hip~ 5;
#X msg 567 652 bang;
#N canvas 0 22 450 300 (subpatch) 0;
#X array graph21 44100 float 0;
#X coords 0 44100 44100 0 200 130 1;
#X restore 546 277 graph;
#X text 546 563 ====== 44103 samples ========;
#X obj 549 680 tabwrite~ table21;
#X obj 225 604 tgl 20 0 on_1 empty empty 0 -6 0 8 -1 -1 -1 0 1;
#X obj 225 656 float;
#X floatatom 225 680 5 0 0 0 - - -;
#X obj 264 681 bng 15 250 50 0 empty empty empty 0 -6 0 8 -262144 -1
-1;
#X obj 282 653 + 1;
#X obj 446 602 tgl 20 0 empty empty empty 0 -6 0 8 -1 -1 -1 0 1;
#X obj 446 653 float;
#X floatatom 446 677 5 0 0 0 - - -;
#X obj 486 679 bng 15 250 50 0 empty empty empty 0 -6 0 8 -262144 -1
-1;
#X obj 660 603 tgl 20 0 empty empty empty 0 -6 0 8 -1 -1 -1 0 1;
#X obj 660 655 float;
#X floatatom 660 679 5 0 0 0 - - -;
#X obj 700 680 bng 15 250 50 0 empty empty empty 0 -6 0 8 -262144 -1
-1;
#X obj 717 652 + 1;
#X obj 660 631 metro 4000;
#X obj 446 629 metro 3000;
#X obj 503 650 + 1;
#N canvas 79 30 1223 703 canal 0;
#X obj 84 517 hip~ 5;
#X floatatom 368 128 0 0 0 0 - - -;
#X floatatom 397 128 0 0 0 0 - - -;
#X obj 166 152 * 441;
#X obj 137 176 *~ 0;
#X obj 137 200 +~ 1;
#X msg 314 321 bang;
#X obj 84 493 *~;
#X obj 193 281 line~;
#X obj 193 233 * 441;
#X floatatom 431 128 0 0 0 0 - - -;
#X obj 193 257 pack 0 100;
#X obj 130 451 +~;
#X obj 80 230 -~ 0.5;
#X obj 134 88 phasor~;
#X obj 80 254 *~ 0.5;
#X obj 80 278 cos~;
#X obj 130 475 tabread4~ table19;
#X obj 314 345 tabwrite~ graph19;
#X text 351 320 <-- graficar;
#X text 263 229 <-- lectura;
#X obj 493 200 bng 15 250 50 0 empty empty empty 17 7 0 10 -262144
-1 -1;
#X obj 367 162 vsl 15 128 0 50 0 0 empty empty empty 0 -9 0 10 -1 -262144
-262144 7934 1;
#X obj 397 162 vsl 15 128 0 127 0 0 empty empty empty 0 -9 0 10 -1
-262144 -262144 9706 1;
#X obj 428 162 vsl 15 128 0 40 0 0 empty empty empty 0 -9 0 10 -1 -262144
-1 800 1;
#X obj 518 194 tgl 20 0 empty empty empty 0 -6 0 8 -1 -262144 -1 0
1;
#X obj 575 251 float;
#X floatatom 575 275 5 0 0 0 - - -;
#X obj 632 252 + 1;
#X obj 575 227 metro 1000;
#X obj 332 26 r datos1;
#X obj 396 26 r datos2;
#X obj 332 50 / 3.678;
#X obj 397 50 / 4.678;
#X floatatom 573 151 3 0 0 0 - - -;
#X obj 573 125 / 127;
#X obj 573 177 s volumen_1;
#X obj 558 104 ctlin 16;
#X obj 455 223 output1~;
#X connect 0 0 38 1;
#X connect 1 0 14 0;
#X connect 2 0 3 0;
#X connect 3 0 4 1;
#X connect 4 0 5 0;
#X connect 5 0 12 0;
#X connect 6 0 18 0;
#X connect 7 0 0 0;
#X connect 8 0 12 1;
#X connect 9 0 11 0;
#X connect 10 0 9 0;
#X connect 11 0 8 0;
#X connect 12 0 17 0;
#X connect 12 0 18 0;
#X connect 13 0 15 0;
#X connect 14 0 4 0;
#X connect 14 0 13 0;
#X connect 15 0 16 0;
#X connect 16 0 7 0;
#X connect 17 0 7 1;
#X connect 21 0 6 0;
#X connect 22 0 1 0;
#X connect 23 0 2 0;
#X connect 24 0 10 0;
#X connect 25 0 29 0;
#X connect 26 0 27 0;
#X connect 26 0 28 0;
#X connect 27 0 21 0;
#X connect 28 0 26 1;
#X connect 29 0 26 0;
#X connect 30 0 32 0;
#X connect 31 0 33 0;
#X connect 32 0 22 0;
#X connect 33 0 23 0;
#X connect 34 0 36 0;
#X connect 35 0 34 0;
#X connect 37 0 35 0;
#X coords 0 -1 1 1 200 200 1 350 100;
#X restore 112 58 pd canal 1;
#N canvas 292 225 1024 612 canal 0;
#X obj 64 380 hip~ 5;
#X floatatom 364 132 0 0 0 0 - - -;
#X floatatom 396 133 0 0 0 0 - - -;
#X obj 135 141 * 441;
#X obj 106 165 *~ 0;
#X obj 106 189 +~ 1;
#X msg 171 283 bang;
#X obj 64 356 *~;
#X obj 129 283 line~;
#X obj 129 235 * 441;
#X floatatom 428 133 0 0 0 0 - - -;
#X obj 129 259 pack 0 100;
#X obj 107 318 +~;
#X obj 63 117 -~ 0.5;
#X obj 106 78 phasor~;
#X obj 63 141 *~ 0.5;
#X obj 63 165 cos~;
#X text 152 53 <-- frecuencia;
#X text 212 282 <-- graficar;
#X text 162 210 <-- lectura;
#X obj 171 307 tabwrite~ graph20;
#X obj 107 342 tabread4~ table20;
#X text 167 108 comment;
#X obj 502 205 bng 15 250 50 0 empty empty empty 17 7 0 10 -262144
-1 -1;
#X obj 364 158 vsl 15 128 0 50 0 0 empty empty empty 0 -9 0 10 -1 -262144
-1 12700 1;
#X obj 396 159 vsl 15 128 0 127 0 0 empty empty empty 0 -9 0 10 -1
-262144 -1 12700 1;
#X obj 428 159 vsl 15 128 0 1023 0 0 empty empty empty 0 -9 0 10 -1
-262144 -1 100 1;
#X obj 524 200 tgl 20 0 empty empty empty 0 -6 0 8 -1 -262144 -1 0
1;
#X obj 598 221 float;
#X floatatom 598 245 5 0 0 0 - - -;
#X obj 598 197 metro 3000;
#X obj 655 218 + 1;
#X floatatom 596 134 3 0 0 0 - - -;
#X obj 596 108 / 127;
#X obj 405 62 / 2.678;
#X obj 460 230 output2~;
#X obj 581 84 ctlin 17;
#X obj 340 35 r datos3;
#X obj 406 36 r datos4;
#X obj 340 63 / 1.678;
#X connect 0 0 35 1;
#X connect 1 0 14 0;
#X connect 2 0 3 0;
#X connect 3 0 4 1;
#X connect 4 0 5 0;
#X connect 5 0 12 0;
#X connect 6 0 20 0;
#X connect 7 0 0 0;
#X connect 8 0 12 1;
#X connect 9 0 11 0;
#X connect 10 0 9 0;
#X connect 11 0 8 0;
#X connect 12 0 20 0;
#X connect 12 0 21 0;
#X connect 13 0 15 0;
#X connect 14 0 4 0;
#X connect 14 0 13 0;
#X connect 15 0 16 0;
#X connect 16 0 7 0;
#X connect 21 0 7 1;
#X connect 23 0 6 0;
#X connect 24 0 1 0;
#X connect 25 0 2 0;
#X connect 26 0 10 0;
#X connect 27 0 30 0;
#X connect 28 0 29 0;
#X connect 28 0 31 0;
#X connect 29 0 23 0;
#X connect 30 0 28 0;
#X connect 31 0 28 1;
#X connect 32 0 35 0;
#X connect 33 0 32 0;
#X connect 34 0 25 0;
#X connect 36 0 33 0;
#X connect 37 0 39 0;
#X connect 38 0 34 0;
#X connect 39 0 24 0;
#X coords 0 -1 1 1 200 200 1 350 100;
#X restore 330 59 pd canal 2;
#X text 172 653 comment;
#X text 172 653 comment;
#N canvas 361 293 1107 675 canal 0;
#X obj 46 381 hip~ 5;
#X floatatom 367 235 0 0 0 0 - - -;
#X floatatom 396 235 0 0 0 0 - - -;
#X obj 111 138 * 441;
#X obj 82 164 *~ 0;
#X obj 82 188 +~ 1;
#X msg 148 283 bang;
#X obj 46 357 *~;
#X obj 105 283 line~;
#X obj 105 235 * 441;
#X floatatom 426 235 0 0 0 0 - - -;
#X obj 105 259 pack 0 100;
#X obj 83 316 +~;
#X obj 39 110 -~ 0.5;
#X obj 81 81 phasor~;
#X obj 39 134 *~ 0.5;
#X obj 39 158 cos~;
#X text 128 56 <-- frecuencia;
#X text 189 282 <-- graficar;
#X text 138 210 <-- lectura;
#X obj 148 307 tabwrite~ graph21;
#X obj 83 340 tabread4~ table21;
#X obj 500 312 bng 15 250 50 0 empty empty empty 17 7 0 10 -262144
-1 -1;
#X text 39 88 comment;
#X text 143 113 comment;
#X text 75 184 comment;
#X obj 367 261 vsl 15 128 0 127 0 0 empty empty empty 0 -9 0 10 -1
-262144 -1 10508 1;
#X obj 396 261 vsl 15 128 0 127 0 0 empty empty empty 0 -9 0 10 -1
-262144 -1 12700 1;
#X obj 426 261 vsl 15 128 0 127 0 0 empty empty empty 0 -9 0 10 -1
-262144 -1 400 1;
#X obj 524 309 tgl 20 0 empty empty empty 0 -6 0 8 -1 -262144 -1 0
1;
#X obj 623 331 float;
#X floatatom 623 355 5 0 0 0 - - -;
#X obj 680 328 + 1;
#X obj 623 307 metro 4000;
#X floatatom 590 241 3 0 0 0 - - -;
#X obj 590 215 / 127;
#X obj 575 193 ctlin 18;
#X obj 590 267 s volumen_3;
#X obj 461 335 output3~;
#X obj 631 59 / 9.678;
#X obj 696 59 / 2.678;
#X obj 631 32 r datos5;
#X obj 697 33 r datos6;
#X connect 0 0 38 0;
#X connect 1 0 14 0;
#X connect 2 0 3 0;
#X connect 3 0 4 1;
#X connect 4 0 5 0;
#X connect 5 0 12 0;
#X connect 6 0 20 0;
#X connect 7 0 0 0;
#X connect 8 0 12 1;
#X connect 9 0 11 0;
#X connect 10 0 9 0;
#X connect 11 0 8 0;
#X connect 12 0 20 0;
#X connect 12 0 21 0;
#X connect 13 0 15 0;
#X connect 14 0 4 0;
#X connect 14 0 13 0;
#X connect 15 0 16 0;
#X connect 16 0 7 0;
#X connect 21 0 7 1;
#X connect 22 0 6 0;
#X connect 26 0 1 0;
#X connect 27 0 2 0;
#X connect 28 0 10 0;
#X connect 29 0 33 0;
#X connect 30 0 31 0;
#X connect 30 0 32 0;
#X connect 31 0 22 0;
#X connect 32 0 30 1;
#X connect 33 0 30 0;
#X connect 34 0 37 0;
#X connect 35 0 34 0;
#X connect 36 0 35 0;
#X connect 39 0 26 0;
#X connect 40 0 27 0;
#X connect 41 0 39 0;
#X connect 42 0 40 0;
#X coords 0 -1 1 1 200 200 1 350 200;
#X restore 546 59 pd canal 3;
#N canvas 0 22 995 631 canal 0;
#X obj 46 381 hip~ 5;
#X floatatom 367 235 0 0 0 0 - - -;
#X floatatom 396 235 0 0 0 0 - - -;
#X obj 103 137 * 441;
#X obj 82 164 *~ 0;
#X obj 82 188 +~ 1;
#X msg 148 283 bang;
#X obj 46 357 *~;
#X obj 105 283 line~;
#X obj 105 235 * 441;
#X floatatom 426 235 0 0 0 0 - - -;
#X obj 105 259 pack 0 100;
#X obj 83 316 +~;
#X obj 39 110 -~ 0.5;
#X obj 36 55 phasor~;
#X obj 39 134 *~ 0.5;
#X obj 39 158 cos~;
#X text 89 50 <-- frecuencia;
#X text 189 282 <-- graficar;
#X text 173 238 <-- lectura;
#X obj 500 312 bng 15 250 50 0 empty empty empty 17 7 0 10 -262144
-1 -1;
#X text 39 88 comment;
#X text 75 184 comment;
#X obj 367 261 vsl 15 128 0 127 0 0 empty empty empty 0 -9 0 10 -1
-262144 -1 0 1;
#X obj 396 261 vsl 15 128 0 50 0 0 empty empty empty 0 -9 0 10 -1 -262144
-1 12700 1;
#X obj 426 261 vsl 15 128 0 70 0 0 empty empty empty 0 -9 0 10 -1 -262144
-1 4456 1;
#X obj 524 309 tgl 20 0 empty empty empty 0 -6 0 8 -1 -262144 -1 0
1;
#X obj 623 331 float;
#X floatatom 623 355 5 0 0 0 - - -;
#X obj 680 328 + 1;
#X obj 148 307 tabwrite~ graph22;
#X obj 83 340 tabread4~ table22;
#X obj 623 307 metro 5000;
#X obj 346 147 r datos1;
#X floatatom 616 243 3 0 0 0 - - -;
#X obj 616 217 / 127;
#X obj 601 196 ctlin 19;
#X obj 461 335 output4~;
#X obj 616 269 s volumen_4;
#X obj 403 148 r datos3;
#X obj 462 147 r datos5;
#X obj 338 172 / 4.678;
#X obj 403 174 / 3;
#X obj 463 173 / 4.678;
#X connect 0 0 37 0;
#X connect 1 0 14 0;
#X connect 2 0 3 0;
#X connect 3 0 4 1;
#X connect 4 0 5 0;
#X connect 5 0 12 0;
#X connect 6 0 30 0;
#X connect 7 0 0 0;
#X connect 8 0 12 1;
#X connect 9 0 11 0;
#X connect 10 0 9 0;
#X connect 11 0 8 0;
#X connect 12 0 30 0;
#X connect 12 0 31 0;
#X connect 13 0 15 0;
#X connect 14 0 4 0;
#X connect 14 0 13 0;
#X connect 15 0 16 0;
#X connect 16 0 7 0;
#X connect 20 0 6 0;
#X connect 23 0 1 0;
#X connect 24 0 2 0;
#X connect 25 0 10 0;
#X connect 26 0 32 0;
#X connect 27 0 28 0;
#X connect 27 0 29 0;
#X connect 28 0 20 0;
#X connect 29 0 27 1;
#X connect 31 0 7 1;
#X connect 32 0 27 0;
#X connect 33 0 41 0;
#X connect 34 0 38 0;
#X connect 35 0 34 0;
#X connect 36 0 35 0;
#X connect 39 0 42 0;
#X connect 40 0 43 0;
#X connect 41 0 25 0;
#X connect 42 0 24 0;
#X coords 0 -1 1 1 200 200 1 350 200;
#X restore 761 60 pd canal 4;
#N canvas 0 22 450 300 (subpatch) 0;
#X array table22 24345 float 0;
#X coords 0 1.02 24344 -1.02 200 130 1;
#X restore 762 427 graph;
#X obj 765 595 adc~ 1;
#X obj 765 619 hip~ 5;
#X msg 783 652 bang;
#N canvas 0 22 450 300 (subpatch) 0;
#X array graph22 44100 float 0;
#X coords 0 44100 44100 0 200 130 1;
#X restore 765 277 graph;
#X text 762 563 ====== 44103 samples ========;
#X obj 876 603 tgl 20 0 empty empty empty 0 -6 0 8 -1 -1 -1 0 1;
#X obj 876 655 float;
#X floatatom 876 679 5 0 0 0 - - -;
#X obj 916 680 bng 15 250 50 0 empty empty empty 0 -6 0 8 -262144 -1
-1;
#X obj 933 652 + 1;
#X obj 765 680 tabwrite~ table22;
#X obj 876 631 metro 5000;
#X obj 225 633 metro 3000;
#X obj 110 -48 vsl 30 40 0 1023 0 0 empty empty empty 0 -9 0 10 -1
-262144 -1 438 1;
#X floatatom 111 4 5 0 0 0 - - -;
#X obj 160 -47 vsl 30 40 0 1023 0 0 empty empty empty 0 -9 0 10 -1
-262144 -1 1731 1;
#X obj 211 -47 vsl 30 40 1 1023 0 0 empty empty empty 0 -9 0 10 -1
-262144 -1 1301 1;
#X floatatom 211 -1 5 0 0 0 - - -;
#X obj 262 -47 vsl 30 40 1 1023 0 0 empty empty empty 0 -9 0 10 -1
-262144 -1 1618 1;
#X floatatom 262 -1 5 0 0 0 - - -;
#X floatatom 160 -1 5 0 0 0 - - -;
#X obj 448 -49 udpreceive 8001;
#X obj 483 -27 unpackOSC;
#X obj 453 -5 print unpacked;
#X obj 455 -83 import mrpeach;
#X text 447 -66 recibiendo datos;
#X obj 312 -48 vsl 30 40 1 1023 0 0 empty empty empty 0 -9 0 10 -1
-262144 -1 3877 1;
#X floatatom 311 1 5 0 0 0 - - -;
#X obj 364 -50 vsl 30 40 1 1023 0 0 empty empty empty 0 -9 0 10 -1
-262144 -1 1576 1;
#X floatatom 364 -4 5 0 0 0 - - -;
#X obj 410 -50 vsl 30 40 1 1023 0 0 empty empty empty 0 -9 0 10 -1
-262144 -1 0 1;
#X floatatom 410 -4 5 0 0 0 - - -;
#X obj 111 26 s datos1;
#X obj 169 25 s datos2;
#X obj 228 25 s datos3;
#X obj 112 727 openpanel;
#X obj 112 709 bng 15 250 50 0 empty empty empty 0 -6 0 8 -1 -1 -1
;
#X obj 112 767 soundfiler;
#X obj 112 790 expr 44100 / $f1;
#X floatatom 112 811 5 0 0 0 - - -;
#X obj 112 833 phasor~;
#X obj 112 855 *~;
#X msg 112 748 read -resize \$1 table19;
#X text 137 707 archivos de audio;
#X obj 333 722 openpanel;
#X obj 333 704 bng 15 250 50 0 empty empty empty 0 -6 0 8 -1 -1 -1
;
#X obj 333 762 soundfiler;
#X obj 333 785 expr 44100 / $f1;
#X floatatom 333 806 5 0 0 0 - - -;
#X obj 333 828 phasor~;
#X obj 333 850 *~;
#X text 358 702 archivos de audio;
#X obj 550 725 openpanel;
#X obj 550 707 bng 15 250 50 0 empty empty empty 0 -6 0 8 -1 -262144
-1;
#X obj 550 765 soundfiler;
#X obj 550 788 expr 44100 / $f1;
#X floatatom 550 809 5 0 0 0 - - -;
#X obj 550 831 phasor~;
#X obj 550 853 *~;
#X text 575 705 archivos de audio;
#X obj 766 722 openpanel;
#X obj 766 704 bng 15 250 50 0 empty empty empty 0 -6 0 8 -1 -1 -1
;
#X obj 766 762 soundfiler;
#X obj 766 785 expr 44100 / $f1;
#X floatatom 766 806 5 0 0 0 - - -;
#X obj 766 828 phasor~;
#X obj 766 850 *~;
#X text 791 702 archivos de audio;
#X msg 333 743 read -resize \$1 table20;
#X msg 550 746 read -resize \$1 table21;
#X msg 766 743 read -resize \$1 table22;
#X obj 551 4 hsl 400 40 0 200 0 0 empty empty Pulsu(m)_Plantae_granular
5 20 1 20 -1 -1 -262144 0 1;
#X obj 95 -87 routeOSC /osc0/filtrado /osc0/min /osc1/filtrado /osc1/min
/osc2/filtrado /osc2/min;
#X obj 283 25 s datos4;
#X obj 340 26 s datos5;
#X obj 396 28 s datos6;
#X obj 981 57 tgl 15 0 empty empty empty 17 7 0 10 -262144 -1 -1 0
1;
#X obj 981 89 bng 15 250 50 0 empty empty empty 17 7 0 10 -262144 -1
-1;
#X obj 981 72 metro 500;
#X msg 981 135 189;
#X msg 1011 135 199;
#X msg 1041 135 219;
#X msg 1069 135 229;
#X obj 981 184 osc~;
#X obj 982 220 output1~;
#X obj 1019 184 tabwrite~ output;
#X obj 981 118 route 1 2 3 4 5;
#X obj 981 102 random 5;
#X msg 1098 135 500;
#X obj 984 387 osc~;
#X obj 982 291 bng 15 250 50 0 empty empty empty 17 7 0 10 -262144
-1 -1;
#X obj 982 276 metro 500;
#X obj 986 422 output3~;
#X obj 1017 387 tabwrite~ output;
#X obj 982 324 route 1 2 3 4 5;
#X msg 982 344 90;
#X msg 1012 344 94;
#X msg 1042 344 98;
#X msg 1070 344 100;
#X msg 1099 344 104;
#X obj 982 305 random 5;
#X obj 983 593 osc~;
#X obj 984 472 tgl 15 0 empty empty empty 17 7 0 10 -262144 -1 -1 0
1;
#X obj 984 503 bng 15 250 50 0 empty empty empty 17 7 0 10 -262144
-1 -1;
#X obj 984 486 metro 500;
#X msg 983 549 128;
#X msg 1013 549 130;
#X msg 1043 549 132;
#X msg 1071 549 136;
#X msg 1100 549 138;
#X obj 987 636 output4~;
#X obj 1013 592 tabwrite~ output;
#X obj 984 533 route 1 2 3 4 5;
#X obj 984 516 random 9;
#X text 732 -71 s 130 133 134 135;
#X text 731 -57 b 23 21 12 7;
#X text 730 -36 m 8 10 11;
#X connect 0 0 1 0;
#X connect 1 0 3 0;
#X connect 2 0 3 0;
#X connect 5 0 7 0;
#X connect 10 0 11 0;
#X connect 11 0 15 0;
#X connect 12 0 15 0;
#X connect 17 0 18 0;
#X connect 18 0 22 0;
#X connect 19 0 22 0;
#X connect 23 0 59 0;
#X connect 24 0 25 0;
#X connect 24 0 27 0;
#X connect 25 0 26 0;
#X connect 26 0 2 0;
#X connect 27 0 24 1;
#X connect 28 0 38 0;
#X connect 29 0 30 0;
#X connect 29 0 39 0;
#X connect 30 0 31 0;
#X connect 31 0 12 0;
#X connect 32 0 37 0;
#X connect 33 0 34 0;
#X connect 33 0 36 0;
#X connect 34 0 35 0;
#X connect 35 0 19 0;
#X connect 36 0 33 1;
#X connect 37 0 33 0;
#X connect 38 0 29 0;
#X connect 39 0 29 1;
#X connect 47 0 48 0;
#X connect 48 0 57 0;
#X connect 49 0 57 0;
#X connect 52 0 58 0;
#X connect 53 0 54 0;
#X connect 53 0 56 0;
#X connect 54 0 55 0;
#X connect 55 0 49 0;
#X connect 56 0 53 1;
#X connect 58 0 53 0;
#X connect 59 0 24 0;
#X connect 60 0 61 0;
#X connect 61 0 79 0;
#X connect 62 0 67 0;
#X connect 63 0 64 0;
#X connect 64 0 81 0;
#X connect 65 0 66 0;
#X connect 66 0 120 0;
#X connect 67 0 80 0;
#X connect 68 0 69 0;
#X connect 69 0 119 0;
#X connect 73 0 74 0;
#X connect 74 0 121 0;
#X connect 75 0 76 0;
#X connect 76 0 122 0;
#X connect 77 0 78 0;
#X connect 82 0 89 0;
#X connect 83 0 82 0;
#X connect 84 0 85 0;
#X connect 84 0 88 1;
#X connect 85 0 86 0;
#X connect 86 0 87 0;
#X connect 87 0 88 0;
#X connect 89 0 84 0;
#X connect 91 0 115 0;
#X connect 92 0 91 0;
#X connect 93 0 94 0;
#X connect 93 0 97 1;
#X connect 94 0 95 0;
#X connect 95 0 96 0;
#X connect 96 0 97 0;
#X connect 99 0 116 0;
#X connect 100 0 99 0;
#X connect 101 0 102 0;
#X connect 101 0 105 1;
#X connect 102 0 103 0;
#X connect 103 0 104 0;
#X connect 104 0 105 0;
#X connect 107 0 117 0;
#X connect 108 0 107 0;
#X connect 109 0 110 0;
#X connect 109 0 113 1;
#X connect 110 0 111 0;
#X connect 111 0 112 0;
#X connect 112 0 113 0;
#X connect 115 0 93 0;
#X connect 116 0 101 0;
#X connect 117 0 109 0;
#X connect 119 0 60 0;
#X connect 119 1 62 0;
#X connect 119 2 63 0;
#X connect 119 3 65 0;
#X connect 119 4 73 0;
#X connect 119 5 75 0;
#X connect 119 6 77 0;
#X connect 123 0 125 0;
#X connect 124 0 132 0;
#X connect 124 0 134 0;
#X connect 125 0 124 0;
#X connect 126 0 130 0;
#X connect 127 0 130 0;
#X connect 128 0 130 0;
#X connect 129 0 130 0;
#X connect 130 0 131 0;
#X connect 130 0 131 1;
#X connect 130 0 132 0;
#X connect 133 0 126 0;
#X connect 133 1 127 0;
#X connect 133 2 128 0;
#X connect 133 3 129 0;
#X connect 133 4 135 0;
#X connect 134 0 133 0;
#X connect 135 0 130 0;
#X connect 136 0 139 0;
#X connect 136 0 139 1;
#X connect 136 0 140 0;
#X connect 137 0 147 0;
#X connect 138 0 137 0;
#X connect 141 0 142 0;
#X connect 141 1 143 0;
#X connect 141 2 144 0;
#X connect 141 3 145 0;
#X connect 141 4 146 0;
#X connect 142 0 136 0;
#X connect 143 0 136 0;
#X connect 144 0 136 0;
#X connect 145 0 136 0;
#X connect 146 0 136 0;
#X connect 147 0 141 0;
#X connect 148 0 157 0;
#X connect 148 0 157 1;
#X connect 148 0 158 0;
#X connect 149 0 151 0;
#X connect 150 0 158 0;
#X connect 150 0 160 0;
#X connect 151 0 150 0;
#X connect 152 0 148 0;
#X connect 153 0 148 0;
#X connect 154 0 148 0;
#X connect 155 0 148 0;
#X connect 156 0 148 0;
#X connect 159 0 152 0;
#X connect 159 1 153 0;
#X connect 159 2 154 0;
#X connect 159 3 155 0;
#X connect 159 4 156 0;
#X connect 160 0 159 0;
