#N canvas 434 161 682 517 10;
#X obj -68 60 gemhead 2;
#X obj 75 60 gemhead 3;
#X obj 75 212 pix_texture;
#X obj 75 168 pix_video;
#X obj 166 153 hsl 128 15 0 1 0 0 empty empty empty -2 -8 0 10 -262144
-1 -1 300 1;
#X msg 81 -99 destroy;
#X msg 80 -76 reset;
#X obj 81 -6 gemwin;
#X obj 97 -30 tgl 15 0 empty empty empty 17 7 0 10 -262144 -1 -1 1
1;
#X msg 139 82 enumerate;
#X msg 139 100 dialog;
#X obj 75 263 rectangle;
#X floatatom 102 239 5 0 0 0 - - -;
#X floatatom 140 237 5 0 0 0 - - -;
#X msg 80 -122 create;
#X msg -18 87 enumerate;
#X msg -18 105 dialog;
#X obj -17 162 pix_video 1;
#X msg 139 119 dimen 640 480;
#X msg -18 124 dimen 640 480;
#X msg 81 -52 dimen 640 480;
#X obj -99 187 pix_chroma_key;
#X msg -101 325 value \$1 20 20;
#X floatatom -101 308 5 0 0 0 - - -;
#X obj -62 308 hsl 128 15 0 255 0 0 empty empty empty -2 -8 0 10 -262144
-1 -1 5400 1;
#X floatatom -99 354 5 0 0 0 - - -;
#X obj -60 354 hsl 128 15 0 255 0 0 empty empty empty -2 -8 0 10 -262144
-1 -1 12600 1;
#X msg -99 371 value 20 \$1 \$1;
#X msg -71 261 direction \$1;
#X obj -66 243 tgl 15 0 empty empty empty 17 7 0 10 -262144 -1 -1 1
1;
#X obj -63 3 pix_colormatrix;
#X floatatom -19 -68 3 -1 2 0 - - -;
#X floatatom 4 -68 3 -1 2 0 - - -;
#X floatatom 27 -68 3 -1 2 0 - - -;
#X floatatom -19 -54 3 -1 2 0 - - -;
#X floatatom 4 -54 3 -1 2 0 - - -;
#X floatatom 27 -54 3 -1 2 0 - - -;
#X floatatom -19 -40 3 -1 2 0 - - -;
#X floatatom 4 -40 3 -1 2 0 - - -;
#X floatatom 27 -40 3 -1 2 0 - - -;
#N canvas 0 22 450 300 pack 0;
#X obj 69 169 pack 0 0 0 0 0 0 0 0 0;
#X obj 69 139 t b f;
#X obj 106 139 t b f;
#X obj 143 139 t b f;
#X obj 180 139 t b f;
#X obj 217 139 t b f;
#X obj 254 139 t b f;
#X obj 291 139 t b f;
#X obj 328 139 t b f;
#X obj 32 111 inlet;
#X obj 69 111 inlet;
#X obj 106 111 inlet;
#X obj 143 111 inlet;
#X obj 180 111 inlet;
#X obj 217 111 inlet;
#X obj 254 111 inlet;
#X obj 291 111 inlet;
#X obj 328 111 inlet;
#X obj 69 196 outlet;
#X connect 0 0 18 0;
#X connect 1 0 0 0;
#X connect 1 1 0 1;
#X connect 2 0 0 0;
#X connect 2 1 0 2;
#X connect 3 0 0 0;
#X connect 3 1 0 3;
#X connect 4 0 0 0;
#X connect 4 1 0 4;
#X connect 5 0 0 0;
#X connect 5 1 0 5;
#X connect 6 0 0 0;
#X connect 6 1 0 6;
#X connect 7 0 0 0;
#X connect 7 1 0 7;
#X connect 8 0 0 0;
#X connect 8 1 0 8;
#X connect 9 0 0 0;
#X connect 10 0 1 0;
#X connect 11 0 2 0;
#X connect 12 0 3 0;
#X connect 13 0 4 0;
#X connect 14 0 5 0;
#X connect 15 0 6 0;
#X connect 16 0 7 0;
#X connect 17 0 8 0;
#X restore -40 -27 pd pack 9 . . .;
#X msg -43 -99 1;
#X obj -43 -118 loadbang;
#X obj 354 188 pix_film;
#X obj 321 59 gemhead 4;
#X obj 351 90 bng 15 250 50 0 empty empty empty 17 7 0 10 -262144 -1
-1;
#X obj 351 115 openpanel;
#X msg 383 160 auto \$1;
#X obj 387 137 tgl 15 0 empty empty empty 17 7 0 10 -262144 -1 -1 1
1;
#X obj 75 191 pix_mix 0;
#X obj 272 254 pix_crop;
#X obj 196 7 pix_crop;
#X floatatom 208 -29 5 0 0 1 dimX - -;
#X floatatom 221 -12 5 0 0 1 dimY - -;
#X floatatom 297 -36 5 0 0 1 offX - -;
#X floatatom 301 -12 5 0 0 1 offY - -;
#X connect 0 0 17 0;
#X connect 1 0 3 0;
#X connect 2 0 11 0;
#X connect 3 0 49 1;
#X connect 4 0 49 2;
#X connect 5 0 7 0;
#X connect 6 0 7 0;
#X connect 8 0 7 0;
#X connect 9 0 3 0;
#X connect 10 0 3 0;
#X connect 12 0 11 1;
#X connect 13 0 11 2;
#X connect 14 0 7 0;
#X connect 15 0 17 0;
#X connect 16 0 17 0;
#X connect 17 0 21 1;
#X connect 17 0 49 0;
#X connect 18 0 3 0;
#X connect 19 0 17 0;
#X connect 20 0 7 0;
#X connect 21 0 2 0;
#X connect 22 0 21 0;
#X connect 23 0 22 0;
#X connect 24 0 23 0;
#X connect 25 0 27 0;
#X connect 26 0 25 0;
#X connect 27 0 21 0;
#X connect 28 0 21 0;
#X connect 29 0 28 0;
#X connect 31 0 40 0;
#X connect 32 0 40 1;
#X connect 33 0 40 2;
#X connect 34 0 40 3;
#X connect 35 0 40 4;
#X connect 36 0 40 5;
#X connect 37 0 40 6;
#X connect 38 0 40 7;
#X connect 39 0 40 8;
#X connect 40 0 30 1;
#X connect 41 0 31 0;
#X connect 41 0 35 0;
#X connect 41 0 39 0;
#X connect 42 0 41 0;
#X connect 44 0 43 0;
#X connect 45 0 46 0;
#X connect 46 0 43 0;
#X connect 47 0 43 0;
#X connect 48 0 47 0;
#X connect 49 0 2 0;
#X connect 51 0 2 0;
#X connect 52 0 51 1;
#X connect 53 0 51 2;
#X connect 54 0 51 3;
#X connect 55 0 51 4;
