#N canvas 573 112 528 472 10;
#X obj 126 93 r algo;
#X obj 133 135 sig~;
#X obj 141 187 osc~;
#X msg 229 220 \$1 100;
#X obj 134 418 dac~;
#X obj 333 81 hsl 128 15 0 1023 0 0 empty empty empty -2 -8 0 10 -262144
-1 -1 10153 1;
#X floatatom 250 168 5 0 0 0 - - -;
#X obj 271 374 snapshot~;
#X floatatom 279 409 5 0 0 0 - - -;
#X obj 269 299 metro 20;
#X obj 297 249 tgl 15 0 empty empty empty 17 7 0 10 -262144 -1 -1 1
1;
#X obj 47 95 r algo2;
#X obj 40 132 sig~;
#X obj 36 199 osc~;
#X obj 77 224 *~;
#X obj 224 260 line~;
#X obj 143 239 *~;
#X obj 223 51 r algo3;
#X obj 217 298 *~ 0.5;
#X obj 271 135 / 1023;
#X obj 39 162 *~ 0.2;
#X obj 16 249 delay~ 22050;
#X obj 353 195 expr pow(2 \, $f1/12);
#X floatatom 367 234 5 0 0 0 - - -;
#X obj 349 166 * 2;
#X obj 376 308 osc~;
#X obj 366 355 *~;
#X obj 381 265 * 440;
#X obj 128 340 +~;
#X obj 129 377 /~ 2;
#X obj 213 195 -;
#X floatatom 188 224 5 0 0 0 - - -;
#X obj 202 155 f 1;
#X obj 202 124 t b f;
#X connect 0 0 1 0;
#X connect 1 0 2 0;
#X connect 2 0 14 1;
#X connect 3 0 15 0;
#X connect 5 0 19 0;
#X connect 6 0 33 0;
#X connect 7 0 8 0;
#X connect 9 0 7 0;
#X connect 10 0 9 0;
#X connect 11 0 12 0;
#X connect 12 0 20 0;
#X connect 13 0 21 0;
#X connect 14 0 16 0;
#X connect 15 0 18 0;
#X connect 16 0 28 0;
#X connect 17 0 5 0;
#X connect 18 0 16 1;
#X connect 18 0 26 1;
#X connect 19 0 6 0;
#X connect 19 0 24 0;
#X connect 20 0 13 0;
#X connect 21 0 14 0;
#X connect 22 0 23 0;
#X connect 23 0 27 0;
#X connect 24 0 22 0;
#X connect 25 0 26 0;
#X connect 26 0 28 1;
#X connect 27 0 25 0;
#X connect 28 0 29 0;
#X connect 29 0 4 0;
#X connect 29 0 4 1;
#X connect 30 0 31 0;
#X connect 31 0 3 0;
#X connect 32 0 30 0;
#X connect 33 0 32 0;
#X connect 33 1 30 1;
